<?xml version="1.0" encoding="utf-8"?>
<!-- Generator: Adobe Illustrator 28.1.0, SVG Export Plug-In . SVG Version: 6.00 Build 0)  -->
<svg version="1.1" id="_レイヤー_1" xmlns="http://www.w3.org/2000/svg" xmlns:xlink="http://www.w3.org/1999/xlink" x="0px"
	 y="0px" viewBox="0 0 706.3 86.3" style="enable-background:new 0 0 706.3 86.3;" xml:space="preserve">
<style type="text/css">
	.st0{fill-rule:evenodd;clip-rule:evenodd;fill:#003F73;}
	.st1{fill-rule:evenodd;clip-rule:evenodd;fill:#E50057;}
</style>
<g>
	<path class="st0" d="M104.6,43.7c0,19.7-23.4,35.6-52.3,35.6S0,63.4,0,43.7S23.4,8.1,52.3,8.1S104.6,24,104.6,43.7L104.6,43.7z
		 M52.5,16.1c-20.9,0-37.8,12.2-37.8,27.4s16.9,27.4,37.8,27.4s37.8-12.2,37.8-27.4S73.4,16.1,52.5,16.1z"/>
	<path class="st0" d="M130.1,73.4c0,2.2-1.8,4-4,4h-7c-2.2,0-4-1.8-4-4V13.1c0-2.2,1.8-4,4-4h7c2.2,0,4,1.8,4,4V73.4z"/>
	<path class="st0" d="M197.5,8.9h1.8c0,0,1.5,0.1,1.9,0.9c0.4,0.8-0.6,1.3-1.3,1.8s-43,27-43,27s-2.4,1.3-2.4,3.4s1.8,3,1.8,3
		l42.4,29.3l1.4,1.1c0,0,0.7,0.6,0.6,1.1c-0.1,0.5-0.5,0.9-1.4,1c-0.9,0-11.5,0-11.5,0s-6.3-0.4-9.3-2.5c-3-2.1-43.4-30.5-43.4-30.5
		s-1.7-1.3-1.7-2.9s0.8-2.4,1.7-3c0.9-0.6,42.2-26.7,42.2-26.7s2.6-1.6,4.8-2.2c2.2-0.6,5.1-0.9,6.9-0.9S197.5,9,197.5,8.9
		L197.5,8.9z"/>
	<path class="st0" d="M247.1,9.9c0,0-6.9,0-9.8,5.3c-2.9,5.3-32.2,57.4-32.2,57.4s-1.2,2-0.8,3.1c0.4,1.1,1.1,1.8,2,1.8h6.1
		c0,0,3.1,0.2,5.5-1.7c2.4-1.8,2.7-2.6,3.3-3.7s26.2-49,26.2-49s0.9-1.5,2-1.5s2,1,2.2,1.4c0.2,0.4,24.9,49.3,24.9,49.3s2.7,5,7.8,5
		s9.1-0.2,9.1-0.2s1-0.4,1.5-1.1c0.5-0.7,0.8-1.2,0.2-2.1s-33.5-59.3-33.5-59.3s-3.2-4.8-7-4.8S247.1,9.9,247.1,9.9L247.1,9.9z"/>
	<path class="st0" d="M360.2,57.8l-18.5-42.4c0,0-2.2-5.6-8.6-5.6s-7.3,0.1-7.3,0.1s-5.2-0.1-7.2,5.8c-2,6-16.7,57-16.7,57l-0.5,1.9
		c0,0-0.1,1.3,0.3,1.8c0.4,0.6,1.6,1.2,2.4,1.2h5.4c0,0,3-0.2,4.5-1.4c1.5-1.3,2.5-2.8,3.2-5.3c0.7-2.5,11.8-44.2,11.8-44.2
		s0.6-1.3,1.3-1.3s1.2,0.5,1.5,1.1c0.3,0.7,20.9,45.8,20.9,45.8s2.3,5.2,7.6,5.2h5.3c0,0,4.8-0.3,6.6-4.2
		c1.9-3.9,20.9-47.9,20.9-47.9s0.5-0.9,1.3-0.9s1.1,0.6,1.4,1.2c0.2,0.6,13.8,48.8,13.8,48.8s1.5,3.3,4.2,3.3s7.1-0.1,7.1-0.1
		s2.3-0.3,3-1.4c0.7-1.1,0.8-2.6,0.2-4.4c-0.6-1.8-17.7-56.5-17.7-56.5s-1.2-2.9-2.9-3.9c-1.8-1.1-2.3-1.4-5-1.4h-7.1
		c0,0-3.7-0.1-5.6,1.7c-1.9,1.8-2.7,3.3-3.3,5c-0.7,1.7-17.5,42.1-17.5,42.1s-0.7,1.7-1.8,1.7s-1.8-0.9-2-1.5
		C360.6,58.5,360.2,57.8,360.2,57.8L360.2,57.8z"/>
	<path class="st0" d="M603.1,10.2H528c-2,0-3.7,1.7-3.7,3.7s1.7,3.7,3.7,3.7h22.8l0,0c0,0,4,0.1,5.5,1.7c1.2,1.2,1.7,2.7,1.7,5V73
		c0,2.8,2.3,5,5,5h4.3c2.8,0,5-2.2,5-5V24.2l0,0c0-2.3,0.5-3.8,1.7-5c1.2-1.3,4.1-1.6,5.2-1.7h23.8c2,0,3.7-1.6,3.7-3.7
		S605.1,10.2,603.1,10.2z"/>
	<path class="st0" d="M706.3,43.7c0,19.7-23.4,35.6-52.3,35.6s-52.3-16-52.3-35.6S625.2,8.1,654,8.1S706.3,24,706.3,43.7z
		 M654.2,16.1c-20.9,0-37.8,12.2-37.8,27.4s16.9,27.4,37.8,27.4S692,58.6,692,43.5S675.1,16.1,654.2,16.1z"/>
</g>
<g>
	<path class="st1" d="M464.8,36.9c0,1.7-1.4,3.1-3.1,3.1s-3.1-1.4-3.1-3.1s1.4-3.1,3.1-3.1S464.8,35.2,464.8,36.9z"/>
	<path class="st1" d="M497.7,36.9c0,1.7-1.4,3.1-3.1,3.1s-3.1-1.4-3.1-3.1s1.4-3.1,3.1-3.1S497.7,35.2,497.7,36.9z"/>
	<path class="st1" d="M496,10.3l4-5.6h-2.8l-0.4,0.7l-3.2,4.4c-3.4-0.7-6.9-1.2-10.6-1.4l-0.6-2.4c-0.6-2.3-3.2-3.4-5.9-2.6
		c-1,0.3-1.9,0.9-2.5,1.6c-1-1.6-3.2-2.3-5.5-1.6c-1,0.3-1.9,0.9-2.5,1.6c-1-1.6-3.2-2.3-5.5-1.6c-2.7,0.9-4.8,3.3-5.1,6.1l-0.2,1.8
		h1.7c-18.4,5.5-31.2,18-31.2,32.6c0,19.7,23.4,35.6,52.3,35.6s52.3-16,52.3-35.6C530.2,28.4,516,15.3,496,10.3L496,10.3z
		 M476.9,5.7c1.2-0.4,2.3,0.1,2.6,1.1l0.4,1.3c-0.6,0-1.2,0-1.8,0c-0.9,0-1.8,0-2.7,0.1C475,7.2,475.7,6.1,476.9,5.7L476.9,5.7z
		 M468.8,5.7c1.2-0.4,2.3,0.1,2.6,1.1l0.4,1.6c-1.5,0.1-3,0.3-4.5,0.5l-0.2-0.7C466.9,7.2,467.6,6.1,468.8,5.7L468.8,5.7z
		 M457.2,9.7c0.2-0.8,0.3-1.2,0.5-1.7c0.8-1.6,1.6-2,2.8-2.3c1.2-0.3,2.7,0.3,3,1.5l0.3,1.5l0.1,0.5l0,0.2c-2.4,0.5-4.8,1-7.1,1.7
		C456.9,11,457,10.4,457.2,9.7L457.2,9.7z M440.3,43.5c0-12.1,10.8-22.3,25.7-25.9l0.7,2.8c0,0,0,0.1,0,0.1h3.5l-0.2-0.6l-0.8-3
		c1.5-0.2,2.9-0.4,4.4-0.6l0.5,2.1c0,0,0.1,0.1,0.3,0.3c0.1,0.7,0.5,1.6,0.7,2c0.1,0.4,0.1,0.7,0.2,1.1c0.3,1,0.5,2.1,0.8,3.1
		c0,0.2,0.1,0.5,0.1,0.7c0.4,1,0.5,2.3,0.9,3.3v0.3h0.1v0.3h0.1v0.3h0.1v0.4h0.1v0.4h0v0.7h0.1v0.4h-0.1v1.3h0v0.7h-0.1v0.6h-0.1V35
		h-0.1v0.4c-0.1,0.3-0.1,0.8-0.2,1.1v0.3c-0.1,0.5-0.2,1-0.4,1.5c0,0.2,0,0.3-0.1,0.5h-0.1c-0.1,0.3-0.2,0.7-0.3,1h-0.1v0.1h-0.1V40
		h0c0,0.1,0,0.2-0.1,0.2h-0.1v0.2h-0.1c0,0.1-0.1,0.2-0.1,0.3h-0.1v0.1h-0.1V41h0v0.1h-0.1c0,0.1,0,0.2-0.1,0.2h-0.1v0.1h0v0.1h-0.1
		v0.1h-0.1v0.1h-0.1c0,0.1,0,0.2-0.1,0.2H475c0,0.1,0,0.2,0,0.2h-0.1c-0.1,0.3-0.3,0.6-0.4,0.9l-0.1,0.1v0.1c0,0-0.1,0-0.1,0.1v0.1
		l-0.1,0.1v0.1h-0.1v0.1H474v0.1c0,0-0.1,0-0.1,0.1c0,0.1,0,0.2-0.1,0.2h-0.1v0.1h-0.1c0,0.1-0.1,0.2-0.1,0.3h0
		c0,0.2-0.1,0.3-0.1,0.5h-0.1v0.2h-0.1v0.3h-0.1v1.2h0.1v0.2h0.1c0,0.1,0,0.2,0.1,0.3h0.1c0,0.1,0,0.2,0.1,0.2h0v0.1
		c0,0,0.1,0,0.1,0V48c0.1,0.1,0.2,0.1,0.2,0.2v0.1c0,0,0.1,0.1,0.2,0.1v0.1h0.1c0.1,0.1,0.1,0.1,0.2,0.2c0.1,0,0.1,0,0.2,0.1
		c0,0,0,0.1,0.1,0.1c0.1,0,0.2,0,0.2,0.1c0,0,0,0.1,0,0.1h0.1l0.1,0.1h0.1v0h0.1v0.1h0.1v0h0.1c0.2,0.1,0.4,0.2,0.6,0.3
		c-0.1,0.7-0.1,1.6,0.1,2.2V52h0.1c0,0.2,0.1,0.4,0.1,0.6h0.1v0.1h0.1v0.2h0.1c0,0.1,0.1,0.2,0.1,0.3h0v0.1h0.1v0.1l0.1,0.1v0.1h0.1
		c0,0,0,0.1,0.1,0.2c0,0,0.1,0,0.1,0.1V54c0,0,0.1,0,0.1,0.1v0.1c0.1,0,0.1,0.1,0.2,0.1v0.1c0.2,0.2,0.4,0.3,0.6,0.5
		c0.1,0.1,0.2,0.2,0.2,0.3h0.1c0,0,0,0.1,0.1,0.1c0.1,0,0.1,0,0.2,0.1v0h0.1c0,0,0,0.1,0,0.1c0.1,0,0.2,0,0.2,0c0,0,0,0.1,0.1,0.1
		h0.1c0,0,0,0.1,0.1,0.1h0.1c0,0,0.1,0.1,0.1,0.2c0.7,0.4,1.2,1,1.5,1.8c0.1,0.3,0,1-0.1,1.2h-0.1c0,0.1,0,0.2-0.1,0.2h0v0.1
		c0,0-0.1,0-0.1,0c0,0.1-0.1,0.2-0.1,0.3c0,0-0.1,0-0.1,0v0.1l-0.1,0.1v0.1h-0.1v0.1h-0.1v0.1h-0.1v0.1h-0.1v0.1h0v0.1h-0.1v0.1h0
		c0,0.1,0,0.2-0.1,0.2H480c0,0.1,0,0.1,0,0.2h-0.1c0,0.1,0,0.2-0.1,0.2h-0.1c0,0.1-0.1,0.2-0.1,0.3h-0.1v0.1h-0.1V62h-0.1v0.2h-0.1
		v0.1h-0.1c0,0.1,0,0.1-0.1,0.2h0v0.2h-0.1c0,0.1,0,0.2-0.1,0.2h0V63H479c0,0.1,0,0.2,0,0.2h-0.1v0.2h-0.1c0,0.1,0,0.2-0.1,0.2h-0.1
		v0.2h-0.1v0.1h0c0,0.1,0,0.2-0.1,0.3h-0.1v0.2h-0.1v0.1h0v0.2h-0.1v0.2h0V65h-0.1c0,0.1,0,0.2,0,0.3h-0.1v0.1H478
		c0,0.2-0.1,0.3-0.1,0.5h-0.1v0.2h-0.1v0.2h0v0.2h-0.1v0.2h-0.1v0.2h0v0.2h-0.1c0,0.1,0,0.2-0.1,0.3h-0.1v0.2c-0.4,1-0.6,2-0.6,3.3
		C456.5,70.2,440.3,58.2,440.3,43.5L440.3,43.5z M479.4,70.8v-0.5c0.1-0.6,0.2-1.1,0.4-1.6c0.3-0.9,0.6-1.7,0.9-2.6h0.1V66h0.1
		c0-0.1,0-0.2,0.1-0.3h0v-0.1h0.1v-0.2h0.1c0-0.1,0-0.2,0-0.3h0.1v-0.1h0.1v-0.2h0.1c0-0.1,0-0.2,0.1-0.2h0v-0.2h0.1v-0.1h0v-0.2
		h0.1c0-0.1,0-0.2,0.1-0.2h0v-0.1h0.1v-0.2h0.1c0-0.1,0-0.2,0.1-0.2h0.1v-0.1h0.1v-0.2h0c0-0.1,0-0.2,0.1-0.2h0.1
		c0-0.1,0-0.1,0.1-0.2h0v-0.1h0.1v-0.1h0v-0.1h0.1v-0.1h0.1c0-0.1,0-0.2,0.1-0.2h0.1c0-0.1,0-0.2,0-0.2h0.1c0-0.1,0.1-0.2,0.1-0.3
		h0.1v-0.1h0v-0.1l0.1-0.1V61c0,0,0.1,0,0.1-0.1c0-0.1,0-0.1,0-0.2c0,0,0.1,0,0.1-0.1c0-0.1,0-0.2,0.1-0.2h0.1
		c0-0.1,0.1-0.2,0.1-0.3h0.1v-0.2h0v-0.2h0.1v-0.2h0v-0.2h0.1v-0.2h0.1v-0.3h0.1c0.1-0.3,0-1.5-0.1-1.8h-0.1c0-0.1,0-0.3,0-0.4h-0.1
		v-0.1h0v-0.2h-0.1c0-0.1-0.1-0.2-0.1-0.3h-0.1V56h-0.1c0-0.1,0-0.2-0.1-0.2c0,0-0.1,0-0.1-0.1v-0.1c0,0-0.1,0-0.1,0v-0.1
		c0,0-0.1,0-0.1,0v-0.1c0,0-0.1-0.1-0.2-0.1V55c-0.2-0.2-0.4-0.3-0.6-0.5c-0.2-0.2-0.3-0.3-0.5-0.5h-0.1c-0.1-0.1-0.1-0.2-0.2-0.2
		h-0.1c0,0,0-0.1-0.1-0.1c-0.1,0-0.1,0-0.2-0.1v-0.1h-0.1c0,0,0-0.1-0.1-0.1h-0.1c0,0,0-0.1-0.1-0.1c-0.1,0-0.2,0-0.2,0
		c-0.2-0.2-0.4-0.4-0.6-0.6v-0.1c0,0-0.1,0-0.1,0c0-0.1,0-0.1-0.1-0.2h-0.1c0-0.1,0-0.2-0.1-0.2h-0.1c0-0.1-0.1-0.2-0.1-0.3h-0.1
		v-0.2h0v-0.2h-0.1v-0.2h-0.1v-0.2h0v-0.5H479c0-0.2,0-0.5,0.1-0.7h0c0-0.4-0.1-0.8-0.1-1.1h0v-0.1h-0.1v-0.2h-0.1v-0.1
		c0,0-0.1,0-0.1,0v-0.1c0,0-0.1,0-0.1-0.1v-0.1c-0.1-0.1-0.2-0.1-0.2-0.2c-0.1-0.1-0.2-0.2-0.3-0.3h-0.1c0,0,0-0.1-0.1-0.1h-0.1
		c0,0,0-0.1,0-0.1c-0.1,0-0.2,0-0.2,0c0,0,0-0.1-0.1-0.1h-0.1l-0.1-0.1H477v0h-0.1V47h-0.1v0h-0.1l-0.1-0.1h-0.1c0,0,0-0.1-0.1-0.1
		c-0.1,0-0.2,0-0.2-0.1c0,0-0.1-0.2-0.2-0.2c0.1-0.8,0.6-1.4,1-2c0.2-0.3,0.3-0.6,0.4-0.9h0.1v-0.1h0.1v-0.1h0.1v-0.1h0v-0.1h0.1
		c0-0.1,0-0.2,0.1-0.2h0c0-0.1,0-0.2,0.1-0.2h0.1c0-0.1,0.1-0.2,0.1-0.3h0.1c0-0.1,0-0.1,0.1-0.2h0v-0.2h0.1c0-0.1,0-0.2,0-0.2h0.1
		v-0.1h0v-0.2h0.1v-0.1h0.1c0-0.1,0-0.2,0.1-0.2h0v-0.2h0.1v-0.1h0.1c0-0.1,0-0.2,0.1-0.3h0.1v-0.1h0.1c0-0.2,0.1-0.5,0.2-0.7h0.1
		v-0.2h0.1v-0.2h0c0-0.1,0-0.3,0.1-0.5c0.2-0.5,0.3-1,0.4-1.5V37c0.1-0.3,0.1-0.7,0.2-1v-0.5h0.1V35h0.1v-0.5h0v-0.6h0.1v-0.8
		c0.1-0.3,0-0.9,0-1.3c0-1,0-1.9-0.3-2.7v-0.3c-0.2-0.5-0.2-1.1-0.4-1.6c0-0.2,0-0.4-0.1-0.6h-0.1v-0.2h-0.1v-0.2h-0.1v-0.3h-0.1
		v-0.2h0v-0.2h-0.1v-0.3c-0.4-1.2-0.6-2.6-1-3.8V21h0v-0.2H478v-0.3h0h0l0-0.1l-0.2-2h0.1v-0.5h0.1v-0.4h0.1v-0.3h0.1v-0.3
		c0.1-0.2,0.1-0.4,0.2-0.7c1.2,0,2.5,0,3.7,0.1l0.1,0.5h0c0,0.2,0.1,0.5,0.2,0.8v0h0c0.4,0.9,1,1.9,2,2.3c2.1,0.9,4.8,0.1,6.5-2.1
		c14.6,3.8,25.2,13.9,25.2,25.8C515.9,58.4,499.7,70.4,479.4,70.8L479.4,70.8z"/>
</g>
</svg>
