<?xml version="1.0" encoding="UTF-8"?>
<svg id="_レイヤー_1" data-name=" レイヤー 1" xmlns="http://www.w3.org/2000/svg" version="1.1" viewBox="0 0 662 542">
  <defs>
    <style>
      .cls-1, .cls-2 {
        fill: #d61554;
        stroke-width: 0px;
      }

      .cls-2 {
        fill-rule: evenodd;
      }
    </style>
  </defs>
  <path class="cls-1" d="M637,319.8l-8.4-2.2c.9-8.7,1.3-17.6,1.3-26.6,0-154.7-135.6-280.5-302.4-280.5S25.1,136.4,25.1,291s.4,17.9,1.3,26.8l-7.4,2c-8.1,2.2-12.9,10.2-10.4,17.7l23.9,76.1c2.4,7.5,11,11.9,19.1,9.8l37.4-10.1c8.1-2.2,12.9-10.1,10.4-17.7l-23.9-76.1c-1.7-5.4-6.5-9.2-12.1-10.1-.4-6.1-.8-12.2-.8-18.4,0-135.5,118.8-245.7,264.8-245.7s264.8,110.2,264.8,245.7-.2,12.4-.8,18.6c-5.2,1.2-9.5,4.8-11.1,9.9l-23.9,76.1c-1,3.3-.7,6.6.7,9.5,3.7-3.8,5.5-6.3,6.2-7.5,5.2-9,10.1-19.3,21.7-20.8,1.2-.1,2.5-.2,3.7-.2,12.7,0,23.5,8.7,25.3,20.4,1,6.5-.3,15.5-8,26.8,7.5,1.1,15-3.1,17.3-10.1l23.9-76.1c2.4-7.5-2.4-15.5-10.4-17.7Z"/>
  <g>
    <path class="cls-2" d="M275.1,230.5c0,7.8-6.4,14.2-14.2,14.2s-14.2-6.4-14.2-14.2,6.4-14.2,14.2-14.2,14.2,6.4,14.2,14.2Z"/>
    <path class="cls-2" d="M426,230.5c0,7.8-6.4,14.2-14.2,14.2s-14.2-6.4-14.2-14.2,6.4-14.2,14.2-14.2,14.2,6.4,14.2,14.2Z"/>
    <path class="cls-2" d="M418.3,108.3l18.4-25.7h-12.9l-1.8,3.3-14.7,20.2c-15.6-3.3-31.7-5.5-48.6-6.4l-2.8-11c-2.8-10.5-14.7-15.6-27.1-11.9-4.6,1.3-8.7,4.1-11.4,7.4-4.6-7.4-14.7-10.5-25.2-7.4-4.6,1.3-8.7,4.1-11.4,7.4-4.6-7.4-14.7-10.5-25.2-7.4-12.4,4.1-22.1,15.1-23.4,28l-.9,8.3h7.8c-84.4,25.2-143.2,82.6-143.2,149.6s107.4,163.4,240.1,163.4,240.1-73.4,240.1-163.4c-.4-71.2-65.7-131.4-157.5-154.2h0v-.2h-.1ZM330.5,87.3c5.5-1.8,10.5.4,11.9,5l1.8,5.9h-8.3c-4.1,0-8.3,0-12.4.4-1.8-4.6,1.3-9.6,6.8-11.4h.2,0ZM293.4,87.3c5.5-1.8,10.5.4,11.9,5l1.8,7.4c-6.8.4-13.8,1.3-20.6,2.2l-.9-3.3c-.9-4.6,2.4-9.6,7.8-11.4h0ZM240.1,105.6c.9-3.7,1.3-5.5,2.4-7.8,3.7-7.4,7.4-9.2,12.9-10.5s12.4,1.3,13.8,6.8l1.3,6.8.4,2.2v.9c-11,2.2-22.1,4.6-32.6,7.8.4-.4.9-3.3,1.8-6.4h0ZM162.5,260.8c0-55.6,49.5-102.3,118-118.9l3.3,12.9v.4h16l-.9-2.8-3.7-13.8c6.8-.9,13.3-1.8,20.2-2.8l2.4,9.6,1.3,1.3c.4,3.3,2.4,7.3,3.3,9.2.4,1.8.4,3.3.9,5,1.3,4.6,2.4,9.6,3.7,14.2,0,.9.4,2.4.4,3.3,1.8,4.6,2.4,10.5,4.1,15.1v1.3h.4v1.3h.4v1.3h.4v1.8h.4v1.8h0v3.3h.4v1.8h-.4v5.9h0v3.3h-.4v2.8h-.4v3.3h-.4v1.8c-.4,1.3-.4,3.7-.9,5v1.3c-.4,2.4-.9,4.6-1.8,6.8,0,.9,0,1.3-.4,2.4h-.4c-.4,1.3-.9,3.3-1.3,4.6h-.4v.4h-.4v.4h0c0,.4,0,.9-.4.9h-.4v.9h-.4c0,.4-.4.9-.4,1.3h-.4v.4h-.4v.9h0v.4h-.4c0,.4,0,.9-.4.9h-.4v.4h0v.4h-.4v.4h-.4v.4h-.4c0,.4,0,.9-.4.9h1.8v.9h-.4c-.4,1.3-1.3,2.8-1.8,4.1l-.4.4v.4s-.4,0-.4.4v.4l-.4.4v.4h-.4v.4h-.4v.4s-.4,0-.4.4,0,.9-.4.9h-.4v.4h-.4c0,.4-.4.9-.4,1.3h0c0,.9-.4,1.3-.4,2.4h-.4v.9h-.4v1.3h-.4v5.5h.4v.9h.4c0,.4,0,.9.4,1.3h.4c0,.4,0,.9.4.9h0v.4h.4v2.4c.4.4.9.4.9.9v.4s.4.4.9.4v.4h.4l.9.9c.3,0,.6.1.9.4s0,.4.4.4.9,0,.9.4v.4h.4l.4.4h.9v.4h.9c.9.4,1.8.9,2.8,1.3-.4,3.3-.4,7.4.4,10.1v.9h.4c0,.9.4,1.8.4,2.8h.4v.4h.4v.9h.4c0,.4.4.9.4,1.3h0v.4h.4v.4l.4.4v.4h.4s0,.4.4.9c0,0,.4,0,.4.4v.4s.4,0,.4.4v.4c.4,0,.4.4.9.4v.4c.9.9,1.8,1.3,2.8,2.4s.9.9.9,1.3h.4s0,.4.4.4.4,0,.9.4h.4v.4h.9s0,.4.4.4h.4s0,.4.4.4h.4s.4.4.4.9c3.3,1.8,5.5,4.6,6.8,8.3.4,1.3,0,4.6-.4,5.5h-.4c0,.4,0,.9-.4.9h0v.4h-.4c0,.4-.4.9-.4,1.3h-.4v.4l-.4.4v.4h-.4v.4h-.4v.4h-.4v.4h-.4v.4h0v.4h-.4v.4h0c0,.4,0,.9-.4.9h.9v.9h-.4c0,.4,0,.9-.4.9h-.4c0,.4-.4.9-.4,1.3h-.4v.4h-.4v2.8h-.4v.9h-.4v.4h-.4c0,.3-.1.6-.4.9h0v.9h-.4c0,.4,0,.9-.4.9h0v.4h.9v.9h-.4v.9h-.4c0,.4,0,.9-.4.9h-.4v.9h-.4v.4h0c0,.4,0,.9-.4,1.3h-.4v.9h-.4v.4h0v.9h-.4v.9h0v.4h-.4v1.3h-.4v.4h.4c0,.9-.4,1.3-.4,2.2h-.4v.9h-.4v.9h0v.9h-.4v.9h-.4v.9h0v.9h-.4c0,.4,0,.9-.4,1.3h-.4v.9c-1.8,4.6-2.8,9.2-2.8,15.1-92.2-3.3-166.7-58.3-166.7-125.8h0l-.3,1.9h0ZM342.1,386.1v-2.2c.4-2.8.9-5,1.8-7.3,1.3-4.1,2.8-7.8,4.1-11.9h.4v-.4h.4c0-.4,0-.9.4-1.3h0v-.4h.4v-.9h.4v-1.3h.4v-.4h.4v-.9h.4c0-.4,0-.9.4-.9h0v-.9h.4v-.4h0v-.9h.4c0-.4,0-.9.4-.9h0v-.4h.4v-.9h.4c0-.4,0-.9.4-.9h.4v-.4h.4v-.9h0c0-.4,0-.9.4-.9h.4c0-.3.1-.6.4-.9h0v-.4h.4v-.4h0v-.4h.4v-.4h.4c0-.4,0-.9.4-.9h.4v-.9h.4c0-.4.4-.9.4-1.3h.4v-.4h0v-.4l.4-.4v-1.3s.4,0,.4-.4v-.9s.4,0,.4-.4,0-.9.4-.9h.4c0-.4.4-.9.4-1.3h.4v-.9h0v-.9h.4v-.9h0v-.9h.4v-.9h.4v-1.3h.4c.4-1.3,0-6.8-.4-8.3h-.4v-1.8h-.4v-.4h0v-.9h-.4c0-.4-.4-.9-.4-1.3h-.9c0-.4,0-.9-.4-.9,0,0-.4,0-.4-.4v-.4h-.4v-.4h-.4v-.4s-.4-.4-.9-.4v-1.3c-.9-.9-1.8-1.3-2.8-2.4l-2.4-2.4h-.4c-.4-.4-.4-.9-.9-.9h-.4s0-.4-.4-.4-.4,0-.9-.4v-.4h-.4s0-.4-.4-.4h-.4s0-.4-.4-.4h-.9l-2.8-2.8v-.4h-.4c0-.3-.1-.6-.4-.9h-.4c0-.4,0-.9-.4-.9h-.4c0-.4-.4-.9-.4-1.3h-.4v-.9h0v-.9h-.4v-.9h-.4v-.9h0v-2.4h-1.8c0-.9,0-2.4.4-3.3h0c0-1.8-.4-3.7-.4-5h0v-.4h-.4v-.9h-.4v-.4h-.4v-.4s-.4,0-.4-.4v-.4c-.4-.4-.9-.4-.9-.9l-1.3-1.3h-.4s0-.4-.4-.4h-.4v-.4h-.9s0-.4-.4-.4h-.4l-.4-.4h-1.8v-.9h-.9l-.4-.4h-.4s0-.4-.4-.4-.9,0-.9-.4c0,0-.4-.9-.9-.9.4-3.7,2.8-6.4,4.6-9.2.9-1.3,1.3-2.8,1.8-4.1h.4v-.4h.4v-.4h.4v-.4h0v-.4h.4c0-.4,0-.9.4-.9h0c0-.4,0-.9.4-.9h.4c0-.4.4-.9.4-1.3h.4c0-.3.1-.6.4-.9h0v-.9h.4v-.9h.4v-.4h0v-.9h.4v-.4h.4c0-.4,0-.9.4-.9h0v-.9h.4v-.4h.4c0-.4,0-.9.4-1.3h.4v-.4h.4c0-.9.4-2.4.9-3.3h.4v-.9h.4v-.9h0c0-.4,0-1.3.4-2.4.9-2.4,1.3-4.6,1.8-6.8v-2.4c.4-1.3.4-3.3.9-4.6v-2.4h.4v-2.4h.4v-2.4h0v-2.8h.4v-3.7c.4-1.3,0-4.1,0-5.9,0-4.6,0-8.7-1.3-12.4v-1.3c-.9-2.4-.9-5-1.8-7.4,0-.9,0-1.8-.4-2.8h-.4v-.9h-.4v-.9h-.4v-1.3h-.4v-.9h0v-.9h-.4v-1.3c-1.8-5.5-2.8-12-4.6-17.5v-1.8h0v-.9h-2.4v-1.3h0v-.4l-.9-9.2h.4v-2.2h.4v-1.8h.4v-1.3h.4v-1.3c.4-.9.4-1.8.9-3.3,5.5,0,11.4,0,17,.4l.4,2.2h0c0,.9.4,2.2.9,3.7h0c1.8,4.1,4.6,8.7,9.2,10.5,9.6,4.1,22.1.4,29.8-9.6,67,17.5,115.7,63.8,115.7,118.5-.9,67.9-75.3,123.1-168.5,124.9h0l.2-1.6h0Z"/>
  </g>
  <path class="cls-1" d="M608.4,397.1c-1.8-8.4-10.1-13.9-18.5-12.1-7.6,1.6-9.3,8.9-12.4,15.9-.6,2-4.6,13.1-28.9,34-17,14.5-47.4,20.3-72.5,22.3-2.1-7.7-9.5-13.1-17.8-12.7l-98.5,6.2c-9.5.6-16.8,8.9-16.3,18.4l2,33.1c.6,9.5,8.9,16.8,18.4,16.3l98.5-6.2c9.5-.6,16.8-8.9,16.3-18.4l-.3-5.5c28.6-2.1,66.5-9.2,90.4-29.7,38.7-33.1,41.4-52.7,39.6-61.5h.1Z"/>
</svg>