<?xml version="1.0" encoding="UTF-8"?>
<svg id="_レイヤー_1" data-name="レイヤー 1" xmlns="http://www.w3.org/2000/svg" viewBox="0 0 428.46 312.83">
  <defs>
    <style>
      .cls-1 {
        fill: #d61554;
        fill-rule: evenodd;
        stroke-width: 0px;
      }
    </style>
  </defs>
  <path class="cls-1" d="M160.16,138.33c0,6.96-5.73,12.7-12.7,12.7s-12.7-5.73-12.7-12.7,5.73-12.7,12.7-12.7,12.7,5.73,12.7,12.7Z"/>
  <path class="cls-1" d="M294.92,138.33c0,6.96-5.73,12.7-12.7,12.7s-12.7-5.73-12.7-12.7,5.73-12.7,12.7-12.7,12.7,5.73,12.7,12.7Z"/>
  <path class="cls-1" d="M287.96,29.37l16.38-22.94h-11.47l-1.64,2.87-13.11,18.02c-13.93-2.87-28.26-4.92-43.42-5.73l-2.46-9.83c-2.46-9.42-13.11-13.93-24.17-10.65-4.1,1.23-7.78,3.69-10.24,6.55-4.1-6.55-13.11-9.42-22.53-6.55-4.1,1.23-7.78,3.69-10.24,6.55-4.1-6.55-13.11-9.42-22.53-6.55-11.06,3.69-19.66,13.52-20.89,24.99l-.82,7.37h6.96C52.43,56,0,107.2,0,167c0,80.69,95.85,145.82,214.23,145.82s214.23-65.54,214.23-145.82c-.41-63.49-58.58-117.15-140.5-137.63h0ZM209.72,10.53c4.92-1.64,9.42.41,10.65,4.51l1.64,5.33h-7.37c-3.69,0-7.37,0-11.06.41-1.64-4.1,1.23-8.6,6.14-10.24h0ZM176.55,10.53c4.92-1.64,9.42.41,10.65,4.51l1.64,6.55c-6.14.41-12.29,1.23-18.43,2.05l-.82-2.87c-.82-4.1,2.05-8.6,6.96-10.24h0ZM129.03,26.92c.82-3.28,1.23-4.92,2.05-6.96,3.28-6.55,6.55-8.19,11.47-9.42,4.92-1.23,11.06,1.23,12.29,6.14l1.23,6.14.41,2.05v.82c-9.83,2.05-19.66,4.1-29.08,6.96.41-.41.82-2.87,1.64-5.73h0ZM59.8,165.37c0-49.56,44.24-91.34,105.27-106.09l2.87,11.47v.41h14.34l-.82-2.46-3.28-12.29c6.14-.82,11.88-1.64,18.02-2.46l2.05,8.6s.41.41,1.23,1.23c.41,2.87,2.05,6.55,2.87,8.19.41,1.64.41,2.87.82,4.51,1.23,4.1,2.05,8.6,3.28,12.7,0,.82.41,2.05.41,2.87,1.64,4.1,2.05,9.42,3.69,13.52v1.23h.41v1.23h.41v1.23h.41v1.64h.41v1.64h0v2.87h.41v1.64h-.41v5.33h0v2.87h-.41v2.46h-.41v2.87h-.41v1.64c-.41,1.23-.41,3.28-.82,4.51v1.23c-.41,2.05-.82,4.1-1.64,6.14,0,.82,0,1.23-.41,2.05h-.41c-.41,1.23-.82,2.87-1.23,4.1h-.41v.41h-.41v.41h0c0,.41,0,.82-.41.82h-.41v.82h-.41c0,.41-.41.82-.41,1.23h-.41v.41h-.41v.82h0v.41h-.41c0,.41,0,.82-.41.82h-.41v.41h0v.41h-.41v.41h-.41v.41h-.41c0,.41,0,.82-.41.82h1.64v.82h-.41c-.41,1.23-1.23,2.46-1.64,3.69l-.41.41v.41s-.41,0-.41.41v.41l-.41.41v.41h-.41v.41h-.41v.41s-.41,0-.41.41,0,.82-.41.82h-.41v.41h-.41c0,.41-.41.82-.41,1.23h0c0,.82-.41,1.23-.41,2.05h-.41v.82h-.41v1.23h-.41v4.92h.41v.82h.41c0,.41,0,.82.41,1.23h.41c0,.41,0,.82.41.82h0v.41h.41v2.05c.41.41.82.41.82.82v.41s.41.41.82.41v.41h.41q.41.41.82.82.41,0,.82.41s0,.41.41.41.82,0,.82.41v.41h.41l.41.41h.82v.41h.82c.82.41,1.64.82,2.46,1.23-.41,2.87-.41,6.55.41,9.01v.82h.41c0,.82.41,1.64.41,2.46h.41v.41h.41v.82h.41c0,.41.41.82.41,1.23h0v.41h.41v.41l.41.41v.41h.41s0,.41.41.82c0,0,.41,0,.41.41v.41s.41,0,.41.41v.41c.41,0,.41.41.82.41v.41c.82.82,1.64,1.23,2.46,2.05.41.41.82.82.82,1.23h.41s0,.41.41.41.41,0,.82.41h.41v.41h.82s0,.41.41.41h.41s0,.41.41.41h.41s.41.41.41.82c2.87,1.64,4.92,4.1,6.14,7.37.41,1.23,0,4.1-.41,4.92h-.41c0,.41,0,.82-.41.82h0v.41h-.41c0,.41-.41.82-.41,1.23h-.41v.41l-.41.41v.41h-.41v.41h-.41v.41h-.41v.41h-.41v.41h0v.41h-.41v.41h0c0,.41,0,.82-.41.82h.82v.82h-.41c0,.41,0,.82-.41.82h-.41c0,.41-.41.82-.41,1.23h-.41v.41h-.41v2.46h-.41v.82h-.41v.41h-.41q0,.41-.41.82h0v.82h-.41c0,.41,0,.82-.41.82h0v.41h.82v.82h-.41v.82h-.41c0,.41,0,.82-.41.82h-.41v.82h-.41v.41h0c0,.41,0,.82-.41,1.23h-.41v.82h-.41v.41h0v.82h-.41v.82h0v.41h-.41v1.23h-.41v.41h.41c0,.82-.41,1.23-.41,2.05h-.41v.82h-.41v.82h0v.82h-.41v.82h-.41v.82h0v.82h-.41c0,.41,0,.82-.41,1.23h-.41v.82c-1.64,4.1-2.46,8.19-2.46,13.52-82.33-2.87-148.69-52.02-148.69-112.24h0ZM219.96,277.19v-2.05c.41-2.46.82-4.51,1.64-6.55,1.23-3.69,2.46-6.96,3.69-10.65h.41v-.41h.41c0-.41,0-.82.41-1.23h0v-.41h.41v-.82h.41v-1.23h.41v-.41h.41v-.82h.41c0-.41,0-.82.41-.82h0v-.82h.41v-.41h0v-.82h.41c0-.41,0-.82.41-.82h0v-.41h.41v-.82h.41c0-.41,0-.82.41-.82h.41v-.41h.41v-.82h0c0-.41,0-.82.41-.82h.41q0-.41.41-.82h0v-.41h.41v-.41h0v-.41h.41v-.41h.41c0-.41,0-.82.41-.82h.41v-.82h.41c0-.41.41-.82.41-1.23h.41v-.41h0v-.41l.41-.41v-1.23s.41,0,.41-.41v-.82s.41,0,.41-.41,0-.82.41-.82h.41c0-.41.41-.82.41-1.23h.41v-.82h0v-.82h.41v-.82h0v-.82h.41v-.82h.41v-1.23h.41c.41-1.23,0-6.14-.41-7.37h-.41v-1.64h-.41v-.41h0v-.82h-.41c0-.41-.41-.82-.41-1.23h-.82c0-.41,0-.82-.41-.82,0,0-.41,0-.41-.41v-.41h-.41v-.41h-.41v-.41s-.41-.41-.82-.41v-1.23c-.82-.82-1.64-1.23-2.46-2.05s-1.23-1.23-2.05-2.05h-.41c-.41-.41-.41-.82-.82-.82h-.41s0-.41-.41-.41-.41,0-.82-.41v-.41h-.41s0-.41-.41-.41h-.41s0-.41-.41-.41h-.82c-.82-.82-1.64-1.64-2.46-2.46v-.41h-.41q0-.41-.41-.82h-.41c0-.41,0-.82-.41-.82h-.41c0-.41-.41-.82-.41-1.23h-.41v-.82h0v-.82h-.41v-.82h-.41v-.82h0v-2.05h-1.64c0-.82,0-2.05.41-2.87h0c0-1.64-.41-3.28-.41-4.51h0v-.41h-.41v-.82h-.41v-.41h-.41v-.41s-.41,0-.41-.41v-.41c-.41-.41-.82-.41-.82-.82-.41-.41-.82-.82-1.23-1.23h-.41s0-.41-.41-.41h-.41v-.41h-.82s0-.41-.41-.41h-.41l-.41-.41h-1.64v-.82h-.82l-.41-.41h-.41s0-.41-.41-.41-.82,0-.82-.41c0,0-.41-.82-.82-.82.41-3.28,2.46-5.73,4.1-8.19.82-1.23,1.23-2.46,1.64-3.69h.41v-.41h.41v-.41h.41v-.41h0v-.41h.41c0-.41,0-.82.41-.82h0c0-.41,0-.82.41-.82h.41c0-.41.41-.82.41-1.23h.41q0-.41.41-.82h0v-.82h.41v-.82h.41v-.41h0v-.82h.41v-.41h.41c0-.41,0-.82.41-.82h0v-.82h.41v-.41h.41c0-.41,0-.82.41-1.23h.41v-.41h.41c0-.82.41-2.05.82-2.87h.41v-.82h.41v-.82h0c0-.41,0-1.23.41-2.05.82-2.05,1.23-4.1,1.64-6.14v-2.05c.41-1.23.41-2.87.82-4.1v-2.05h.41v-2.05h.41v-2.05h0v-2.46h.41v-3.28c.41-1.23,0-3.69,0-5.33,0-4.1,0-7.78-1.23-11.06v-1.23c-.82-2.05-.82-4.51-1.64-6.55,0-.82,0-1.64-.41-2.46h-.41v-.82h-.41v-.82h-.41v-1.23h-.41v-.82h0v-.82h-.41v-1.23c-1.64-4.92-2.46-10.65-4.1-15.57v-1.64h0v-.82h-2.05v-1.23h0v-.41l-.82-8.19h.41v-2.05h.41v-1.64h.41v-1.23h.41v-1.23c.41-.82.41-1.64.82-2.87,4.92,0,10.24,0,15.16.41l.41,2.05h0c0,.82.41,2.05.82,3.28h0c1.64,3.69,4.1,7.78,8.19,9.42,8.6,3.69,19.66.41,26.63-8.6,59.8,15.57,103.22,56.94,103.22,105.68-.82,60.62-67.18,109.78-150.33,111.42h0Z"/>
</svg>